inDegrees=no
num_controls=7
num_derivatives=13
num_iterations=99
num_multipliers=7
num_parameters=0
num_slacks=7
num_states=26
objective=5.538594
objective_accelerations=0.757230
objective_balance=0.045760
objective_effort=0.313119
objective_height=4.329384
objective_ligament=0.093100
solver_duration=1124.489299
status=Solve_Succeeded
success=true
DataType=double
version=3
OpenSimVersion=4.4-2022-07-23-0e9fedc
endheader
time	/jointset/ground_pelvis/pelvis_tilt/value	/jointset/ground_pelvis/pelvis_tx/value	/jointset/ground_pelvis/pelvis_ty/value	/jointset/hip_l/hip_flexion_l/value	/jointset/hip_l/hip_adduction_l/value	/jointset/hip_l/hip_rotation_l/value	/jointset/back/lumbar_extension/value	/jointset/patellofemoral_l/patellar_flexion_l/value	/jointset/knee_l/knee_flexion_l/value	/jointset/knee_l/knee_adduction_l/value	/jointset/knee_l/knee_rotation_l/value	/jointset/ankle_l/ankle_angle_l/value	/jointset/subtalar_l/subtalar_angle_l/value	/jointset/ground_pelvis/pelvis_tilt/speed	/jointset/ground_pelvis/pelvis_tx/speed	/jointset/ground_pelvis/pelvis_ty/speed	/jointset/hip_l/hip_flexion_l/speed	/jointset/hip_l/hip_adduction_l/speed	/jointset/hip_l/hip_rotation_l/speed	/jointset/back/lumbar_extension/speed	/jointset/patellofemoral_l/patellar_flexion_l/speed	/jointset/knee_l/knee_flexion_l/speed	/jointset/knee_l/knee_adduction_l/speed	/jointset/knee_l/knee_rotation_l/speed	/jointset/ankle_l/ankle_angle_l/speed	/jointset/subtalar_l/subtalar_angle_l/speed	/forceset/tau_hip_flexion_l	/forceset/tau_hip_adduction_l	/forceset/tau_hip_rotation_l	/forceset/tau_knee_flexion_l	/forceset/tau_ankle_angle_l	/forceset/tau_subtalar_angle_l	/forceset/tau_lumbar_extension	lambda_cid13_p0	lambda_cid13_p1	lambda_cid13_p2	lambda_cid13_p3	lambda_cid13_p4	lambda_cid13_p5	lambda_cid14_p0	/jointset/ground_pelvis/pelvis_tilt/accel	/jointset/ground_pelvis/pelvis_tx/accel	/jointset/ground_pelvis/pelvis_ty/accel	/jointset/hip_l/hip_flexion_l/accel	/jointset/hip_l/hip_adduction_l/accel	/jointset/hip_l/hip_rotation_l/accel	/jointset/back/lumbar_extension/accel	/jointset/patellofemoral_l/patellar_flexion_l/accel	/jointset/knee_l/knee_flexion_l/accel	/jointset/knee_l/knee_adduction_l/accel	/jointset/knee_l/knee_rotation_l/accel	/jointset/ankle_l/ankle_angle_l/accel	/jointset/subtalar_l/subtalar_angle_l/accel	gamma_cid13_p0	gamma_cid13_p1	gamma_cid13_p2	gamma_cid13_p3	gamma_cid13_p4	gamma_cid13_p5	gamma_cid14_p0
0.5	-0.4058054923565456	-0.07003156380529338	0.7503521683943281	1.194700827266746	-0.4332927276865291	-0.2313637684264759	-0.2554235638689498	0.7752628742225186	0.7752628742223414	-0.1331983895104893	-0.1598297769698895	0.04196279451971262	-0.06318169106946761	-0.9405280771072336	-0.2902758303957287	-0.5647413560192696	2.727478077308841	-0.2019533379192256	0.7264598124490798	-0.1069570188340015	1.909864688604846	1.909864688604759	0.1150006063798523	-0.08505862852787431	0.2809756143363848	-0.0895429968594272	-0.1975714456493378	0.02418814918543678	-0.009948883708238262	-0.2012336007769434	0.0968473091573466	0.04374055989728157	0.1854924258499645	-2.024361281120153	-21.31282390090155	6.112568355272082	-8.902715207708964	-520.5210735801413	-54.7930929833725	-26.677458561506	0.96718626755302	0.7168554365426496	-0.4653492253969818	-1.528164290260127	0.7327125351607016	-0.1634490193364831	1.11296890380316	-1.166753915208412	-1.166753915208413	0.09483484030466763	0.1981490969032647	-0.3909956263146515	0.5715808027200475	-4.91427578378473e-07	-5.783946536167914e-07	2.216562129111339e-06	6.65101602053133e-08	-5.843274984854765e-07	3.603588822169287e-07	-4.304135455845206e-07
0.51	-0.4151600659329309	-0.0728981522344489	0.7446827235883138	1.221893832812391	-0.4352768580490039	-0.2241066769866217	-0.2564390387098807	0.7943002389556812	0.7943002389555962	-0.1320477626710019	-0.1606703124441959	0.04475192251443413	-0.06405042175606347	-0.9302483824302569	-0.2830188119410191	-0.5690283825523154	2.710756785528883	-0.1948543258094736	0.7248564948665412	-0.09619356390370962	1.897352543286391	1.897352543286463	0.1151237918013947	-0.08304477514633406	0.276788822262055	-0.08420784598028121	-0.204070018795242	0.02473669812099301	-0.010057814053805	-0.2033426309190576	0.09707023933266808	0.04451009650310274	0.1903421349939148	-2.178757490265281	-21.58425448546667	6.115011135723226	-8.890115545536757	-524.4270366657312	-54.4356172669025	-25.80728205510039	1.07903451366224	0.7336016359032844	-0.3926145080855982	-1.799124702429091	0.7010392610926658	-0.174444764550485	1.049691605084115	-1.331713918701415	-1.331713918677643	-0.02907261769900713	0.2040559659493746	-0.4416878807095668	0.513576967475618	-4.952392466935977e-07	-4.578480567051721e-07	2.339727134248515e-06	1.001379785852253e-07	-5.674985477746859e-07	4.117035589398024e-07	-4.28694732537292e-07
0.52	-0.4244077078733637	-0.07569147516186327	0.7389739614888037	1.248908622824079	-0.4371894895479482	-0.2168687530499511	-0.2573485474380316	0.8132048284198951	0.8132048284200274	-0.1308959305793176	-0.1614904988834121	0.047497349211867	-0.06486598198647468	-0.9191417499176214	-0.2756227300474996	-0.5726048147183979	2.69183497052631	-0.1876535652113039	0.7226263118104829	-0.08576379627575449	1.883309634826436	1.883309634826666	0.1152416567918151	-0.08098882147797318	0.2722353548790259	-0.07890890562257917	-0.2105685919415734	0.02528524705652433	-0.01016674439811318	-0.2054516610612534	0.09729316950802959	0.04527963310891605	0.1951918441374231	-2.33740093820281	-21.85646706783592	6.119322685246561	-8.90517054055378	-528.4172704916772	-54.13635665387267	-24.9380387384402	1.132573834684658	0.7446681243044295	-0.3232303520043286	-1.96826893478346	0.7530622328443004	-0.2888221140404774	1.046231443335628	-1.472906543508416	-1.472906543508411	0.09377075408023205	0.206569154267261	-0.4643306880547733	0.5643386984310775	-4.61892935038618e-07	-3.915327784223587e-07	2.238265303403336e-06	9.97875761903694e-08	-5.16628036139656e-07	4.42830770407911e-07	-4.045233079632058e-07
0.53	-0.4335403948123143	-0.07841020599765386	0.7332329883174139	1.275723661324553	-0.4390295259169571	-0.2096561438197942	-0.2581554504834935	0.8319616368122863	0.8319616368123195	-0.1297426470970633	-0.1622898263041924	0.05019559918534242	-0.06562854852986663	-0.9072656776877107	-0.2681055092393058	-0.5754681997421719	2.670818414061342	-0.1803446045793541	0.7198026495086285	-0.07569264112853864	1.867812448392095	1.867812448392359	0.1154049152188596	-0.07886999636114769	0.2673638366716665	-0.07361387071564232	-0.2167956704761132	0.02555396001226969	-0.01024767694710011	-0.2078135081645291	0.09788655621053539	0.04582226053031034	0.1997878368219496	-2.377563155609052	-22.05177061914058	6.112390827810664	-8.937804019484572	-532.3169659927693	-53.70906189172816	-24.07042498711521	1.234557897609663	0.757958159975336	-0.2497475867429569	-2.221565810309856	0.7209640202655314	-0.2933981574944415	0.9761833035772373	-1.623985616237634	-1.623985616232459	-0.02389703524550015	0.2159944981771478	-0.506170196843817	0.5104683730352507	-4.392967433448787e-07	-3.271212765717903e-07	2.190147948318956e-06	1.072585238242197e-07	-4.797991289775036e-07	4.803102152930917e-07	-3.877994688121261e-07
0.54	-0.4425504342328717	-0.08105322280518232	0.7274670102939506	1.302317890898802	-0.4407962424712655	-0.2024746231864837	-0.2588639168268427	0.8505563011557303	0.8505563011557137	-0.1285880311149248	-0.1630676744123426	0.05284361241479111	-0.06633848822694673	-0.8946122462392013	-0.2604799243950715	-0.5776057851330003	2.647673185278139	-0.1729896022716067	0.7164085924373207	-0.06607645585482672	1.850880825044122	1.850880825044421	0.11550815675543	-0.07669295893282461	0.2621880060736113	-0.06838353636028681	-0.2230227490104859	0.0258226729680936	-0.01032860949538642	-0.2101753552678463	0.09847994291304546	0.04636488795178331	0.204383829506609	-2.423113687380774	-22.24709118380645	6.106560070643197	-8.990554402088309	-536.3197853966202	-53.33564537204289	-23.20559367330965	1.288045678404552	0.7663409315123649	-0.1780704254152654	-2.394003398430512	0.7622705680038099	-0.4029010679311513	0.9552374686348	-1.759793926234577	-1.759793926234601	0.08176737598537027	0.2182116165666888	-0.5251931661942102	0.5513985881146356	-4.285943013954906e-07	-2.648160805611526e-07	2.201050013225247e-06	1.233828800004684e-07	-4.585056139981095e-07	5.248176631077989e-07	-3.793155114056495e-07
